<mxfile host="Electron" agent="Mozilla/5.0 (Windows NT 10.0; Win64; x64) AppleWebKit/537.36 (KHTML, like Gecko) draw.io/24.7.8 Chrome/128.0.6613.36 Electron/32.0.1 Safari/537.36" version="24.7.8">
  <diagram id="SEVy3bsyrVNrqaWMy1Hi" name="PÃ¡gina-1">
    <mxGraphModel dx="854" dy="-108" grid="1" gridSize="10" guides="1" tooltips="1" connect="1" arrows="1" fold="1" page="0" pageScale="1" pageWidth="1169" pageHeight="1654" math="0" shadow="0">
      <root>
        <mxCell id="0" />
        <mxCell id="1" parent="0" />
        <mxCell id="6v44J63JRGMGie98hEK5-2" value="&lt;span style=&quot;font-size: 18px;&quot;&gt;uart_cordic&lt;/span&gt;" style="text;html=1;align=center;verticalAlign=middle;whiteSpace=wrap;rounded=0;" parent="1" vertex="1">
          <mxGeometry x="275" y="640" width="110" height="30" as="geometry" />
        </mxCell>
        <mxCell id="6v44J63JRGMGie98hEK5-5" value="" style="rounded=1;whiteSpace=wrap;html=1;fillColor=default;" parent="1" vertex="1">
          <mxGeometry x="90" y="770" width="160" height="190" as="geometry" />
        </mxCell>
        <mxCell id="6v44J63JRGMGie98hEK5-6" value="&lt;font style=&quot;font-size: 14px;&quot;&gt;uart_rx&lt;/font&gt;" style="text;html=1;align=center;verticalAlign=middle;whiteSpace=wrap;rounded=0;" parent="1" vertex="1">
          <mxGeometry x="140" y="740" width="60" height="30" as="geometry" />
        </mxCell>
        <mxCell id="6v44J63JRGMGie98hEK5-8" value="" style="rounded=1;whiteSpace=wrap;html=1;" parent="1" vertex="1">
          <mxGeometry x="360" y="810" width="200" height="150" as="geometry" />
        </mxCell>
        <mxCell id="6v44J63JRGMGie98hEK5-9" value="&lt;font style=&quot;font-size: 14px;&quot;&gt;cordic_ctl&lt;/font&gt;" style="text;html=1;align=center;verticalAlign=middle;whiteSpace=wrap;rounded=0;" parent="1" vertex="1">
          <mxGeometry x="430" y="780" width="60" height="30" as="geometry" />
        </mxCell>
        <mxCell id="6v44J63JRGMGie98hEK5-13" value="clk_rx" style="text;html=1;align=center;verticalAlign=middle;whiteSpace=wrap;rounded=0;" parent="1" vertex="1">
          <mxGeometry x="160" y="930" width="20" height="30" as="geometry" />
        </mxCell>
        <mxCell id="6v44J63JRGMGie98hEK5-14" value="clk_cd_ctl" style="text;html=1;align=center;verticalAlign=middle;whiteSpace=wrap;rounded=0;" parent="1" vertex="1">
          <mxGeometry x="412.5" y="930" width="55" height="30" as="geometry" />
        </mxCell>
        <mxCell id="6v44J63JRGMGie98hEK5-26" style="edgeStyle=orthogonalEdgeStyle;rounded=0;orthogonalLoop=1;jettySize=auto;html=1;entryX=0.5;entryY=1;entryDx=0;entryDy=0;endArrow=none;endFill=0;" parent="1" source="6v44J63JRGMGie98hEK5-22" target="6v44J63JRGMGie98hEK5-13" edge="1">
          <mxGeometry relative="1" as="geometry" />
        </mxCell>
        <mxCell id="6v44J63JRGMGie98hEK5-22" value="clk_pin" style="text;html=1;align=center;verticalAlign=middle;whiteSpace=wrap;rounded=0;" parent="1" vertex="1">
          <mxGeometry x="150" y="980" width="40" height="30" as="geometry" />
        </mxCell>
        <mxCell id="6v44J63JRGMGie98hEK5-28" style="edgeStyle=orthogonalEdgeStyle;rounded=0;orthogonalLoop=1;jettySize=auto;html=1;entryX=0.5;entryY=1;entryDx=0;entryDy=0;endArrow=none;endFill=0;" parent="1" source="6v44J63JRGMGie98hEK5-27" target="6v44J63JRGMGie98hEK5-14" edge="1">
          <mxGeometry relative="1" as="geometry" />
        </mxCell>
        <mxCell id="6v44J63JRGMGie98hEK5-27" value="clk_pin" style="text;html=1;align=center;verticalAlign=middle;whiteSpace=wrap;rounded=0;" parent="1" vertex="1">
          <mxGeometry x="420" y="980" width="40" height="30" as="geometry" />
        </mxCell>
        <mxCell id="6v44J63JRGMGie98hEK5-29" value="rst_clk_rx" style="text;html=1;align=center;verticalAlign=middle;whiteSpace=wrap;rounded=0;" parent="1" vertex="1">
          <mxGeometry x="90" y="870" width="60" height="30" as="geometry" />
        </mxCell>
        <mxCell id="6v44J63JRGMGie98hEK5-30" value="rst_cordic_ctl" style="text;html=1;align=center;verticalAlign=middle;whiteSpace=wrap;rounded=0;" parent="1" vertex="1">
          <mxGeometry x="360" y="900" width="80" height="30" as="geometry" />
        </mxCell>
        <mxCell id="6v44J63JRGMGie98hEK5-32" style="edgeStyle=orthogonalEdgeStyle;rounded=0;orthogonalLoop=1;jettySize=auto;html=1;exitX=1;exitY=0.5;exitDx=0;exitDy=0;entryX=0;entryY=0.5;entryDx=0;entryDy=0;endArrow=none;endFill=0;" parent="1" source="6v44J63JRGMGie98hEK5-31" target="6v44J63JRGMGie98hEK5-29" edge="1">
          <mxGeometry relative="1" as="geometry" />
        </mxCell>
        <mxCell id="6v44J63JRGMGie98hEK5-31" value="rst_pin" style="text;html=1;align=center;verticalAlign=middle;whiteSpace=wrap;rounded=0;" parent="1" vertex="1">
          <mxGeometry x="30" y="870" width="40" height="30" as="geometry" />
        </mxCell>
        <mxCell id="6v44J63JRGMGie98hEK5-33" value="rxd_i" style="text;html=1;align=center;verticalAlign=middle;whiteSpace=wrap;rounded=0;" parent="1" vertex="1">
          <mxGeometry x="90" y="840" width="40" height="30" as="geometry" />
        </mxCell>
        <mxCell id="6v44J63JRGMGie98hEK5-35" style="edgeStyle=orthogonalEdgeStyle;rounded=0;orthogonalLoop=1;jettySize=auto;html=1;entryX=0;entryY=0.5;entryDx=0;entryDy=0;endArrow=none;endFill=0;" parent="1" source="6v44J63JRGMGie98hEK5-34" target="6v44J63JRGMGie98hEK5-33" edge="1">
          <mxGeometry relative="1" as="geometry" />
        </mxCell>
        <mxCell id="6v44J63JRGMGie98hEK5-34" value="rxd_pin" style="text;html=1;align=center;verticalAlign=middle;whiteSpace=wrap;rounded=0;" parent="1" vertex="1">
          <mxGeometry x="30" y="840" width="40" height="30" as="geometry" />
        </mxCell>
        <mxCell id="6v44J63JRGMGie98hEK5-39" style="edgeStyle=orthogonalEdgeStyle;rounded=0;orthogonalLoop=1;jettySize=auto;html=1;exitX=1;exitY=0.5;exitDx=0;exitDy=0;startArrow=none;startFill=0;endArrow=none;endFill=0;" parent="1" source="6v44J63JRGMGie98hEK5-36" edge="1">
          <mxGeometry relative="1" as="geometry">
            <mxPoint y="885" as="targetPoint" />
          </mxGeometry>
        </mxCell>
        <mxCell id="6v44J63JRGMGie98hEK5-36" value="rxd_pin" style="text;html=1;align=center;verticalAlign=middle;whiteSpace=wrap;rounded=0;" parent="1" vertex="1">
          <mxGeometry x="-130" y="870" width="40" height="30" as="geometry" />
        </mxCell>
        <mxCell id="6v44J63JRGMGie98hEK5-38" value="rst_pin" style="text;html=1;align=center;verticalAlign=middle;whiteSpace=wrap;rounded=0;" parent="1" vertex="1">
          <mxGeometry x="-130" y="900" width="40" height="30" as="geometry" />
        </mxCell>
        <mxCell id="6v44J63JRGMGie98hEK5-40" style="edgeStyle=orthogonalEdgeStyle;rounded=0;orthogonalLoop=1;jettySize=auto;html=1;exitX=1;exitY=0.5;exitDx=0;exitDy=0;endArrow=none;endFill=0;" parent="1" source="6v44J63JRGMGie98hEK5-38" edge="1">
          <mxGeometry relative="1" as="geometry">
            <mxPoint y="915" as="targetPoint" />
          </mxGeometry>
        </mxCell>
        <mxCell id="6v44J63JRGMGie98hEK5-41" value="clk_pin" style="text;html=1;align=center;verticalAlign=middle;whiteSpace=wrap;rounded=0;" parent="1" vertex="1">
          <mxGeometry x="235" y="1120" width="40" height="30" as="geometry" />
        </mxCell>
        <mxCell id="6v44J63JRGMGie98hEK5-42" style="edgeStyle=orthogonalEdgeStyle;rounded=0;orthogonalLoop=1;jettySize=auto;html=1;entryX=0.31;entryY=1.003;entryDx=0;entryDy=0;entryPerimeter=0;endArrow=none;endFill=0;" parent="1" source="6v44J63JRGMGie98hEK5-41" edge="1">
          <mxGeometry relative="1" as="geometry">
            <mxPoint x="252.79999999999973" y="1081.17" as="targetPoint" />
            <Array as="points">
              <mxPoint x="253" y="1135" />
            </Array>
          </mxGeometry>
        </mxCell>
        <mxCell id="6v44J63JRGMGie98hEK5-60" style="edgeStyle=orthogonalEdgeStyle;rounded=0;orthogonalLoop=1;jettySize=auto;html=1;entryX=0;entryY=0.5;entryDx=0;entryDy=0;endArrow=none;endFill=0;" parent="1" source="6v44J63JRGMGie98hEK5-43" target="6v44J63JRGMGie98hEK5-58" edge="1">
          <mxGeometry relative="1" as="geometry" />
        </mxCell>
        <mxCell id="6v44J63JRGMGie98hEK5-43" value="rx_data" style="text;html=1;align=center;verticalAlign=middle;whiteSpace=wrap;rounded=0;" parent="1" vertex="1">
          <mxGeometry x="200" y="870" width="50" height="30" as="geometry" />
        </mxCell>
        <mxCell id="6v44J63JRGMGie98hEK5-46" value="rx_data_rdy" style="text;html=1;align=center;verticalAlign=middle;whiteSpace=wrap;rounded=0;" parent="1" vertex="1">
          <mxGeometry x="175" y="840" width="75" height="30" as="geometry" />
        </mxCell>
        <mxCell id="6v44J63JRGMGie98hEK5-52" value="" style="endArrow=none;html=1;rounded=0;" parent="1" edge="1">
          <mxGeometry width="50" height="50" relative="1" as="geometry">
            <mxPoint y="1080" as="sourcePoint" />
            <mxPoint y="680" as="targetPoint" />
          </mxGeometry>
        </mxCell>
        <mxCell id="6v44J63JRGMGie98hEK5-53" value="" style="endArrow=none;html=1;rounded=0;" parent="1" edge="1">
          <mxGeometry width="50" height="50" relative="1" as="geometry">
            <mxPoint y="680" as="sourcePoint" />
            <mxPoint x="640" y="680" as="targetPoint" />
          </mxGeometry>
        </mxCell>
        <mxCell id="6v44J63JRGMGie98hEK5-54" value="" style="endArrow=none;html=1;rounded=0;" parent="1" edge="1">
          <mxGeometry width="50" height="50" relative="1" as="geometry">
            <mxPoint y="1080" as="sourcePoint" />
            <mxPoint x="640" y="1080" as="targetPoint" />
          </mxGeometry>
        </mxCell>
        <mxCell id="6v44J63JRGMGie98hEK5-55" value="" style="endArrow=none;html=1;rounded=0;" parent="1" edge="1">
          <mxGeometry width="50" height="50" relative="1" as="geometry">
            <mxPoint x="640" y="1080" as="sourcePoint" />
            <mxPoint x="640" y="680" as="targetPoint" />
          </mxGeometry>
        </mxCell>
        <mxCell id="6v44J63JRGMGie98hEK5-56" value="" style="endArrow=none;html=1;rounded=0;exitX=1;exitY=0.5;exitDx=0;exitDy=0;entryX=0;entryY=0.5;entryDx=0;entryDy=0;" parent="1" source="6v44J63JRGMGie98hEK5-46" target="6v44J63JRGMGie98hEK5-59" edge="1">
          <mxGeometry width="50" height="50" relative="1" as="geometry">
            <mxPoint x="280" y="870" as="sourcePoint" />
            <mxPoint x="330" y="820" as="targetPoint" />
          </mxGeometry>
        </mxCell>
        <mxCell id="6v44J63JRGMGie98hEK5-58" value="rx_data" style="text;html=1;align=center;verticalAlign=middle;whiteSpace=wrap;rounded=0;" parent="1" vertex="1">
          <mxGeometry x="360" y="870" width="50" height="30" as="geometry" />
        </mxCell>
        <mxCell id="6v44J63JRGMGie98hEK5-59" value="rx_data_rdy" style="text;html=1;align=center;verticalAlign=middle;whiteSpace=wrap;rounded=0;" parent="1" vertex="1">
          <mxGeometry x="360" y="840" width="75" height="30" as="geometry" />
        </mxCell>
        <mxCell id="6v44J63JRGMGie98hEK5-61" style="edgeStyle=orthogonalEdgeStyle;rounded=0;orthogonalLoop=1;jettySize=auto;html=1;exitX=1;exitY=0.5;exitDx=0;exitDy=0;entryX=0;entryY=0.5;entryDx=0;entryDy=0;endArrow=none;endFill=0;" parent="1" source="6v44J63JRGMGie98hEK5-62" edge="1">
          <mxGeometry relative="1" as="geometry">
            <mxPoint x="360" y="915" as="targetPoint" />
          </mxGeometry>
        </mxCell>
        <mxCell id="6v44J63JRGMGie98hEK5-62" value="rst_pin" style="text;html=1;align=center;verticalAlign=middle;whiteSpace=wrap;rounded=0;" parent="1" vertex="1">
          <mxGeometry x="300" y="900" width="40" height="30" as="geometry" />
        </mxCell>
        <mxCell id="6v44J63JRGMGie98hEK5-65" style="edgeStyle=orthogonalEdgeStyle;rounded=0;orthogonalLoop=1;jettySize=auto;html=1;endArrow=circle;endFill=0;endSize=4;" parent="1" edge="1">
          <mxGeometry relative="1" as="geometry">
            <mxPoint x="270" y="840" as="targetPoint" />
            <mxPoint x="250" y="824.7" as="sourcePoint" />
          </mxGeometry>
        </mxCell>
        <mxCell id="6v44J63JRGMGie98hEK5-63" value="rxd_clk_rx" style="text;html=1;align=center;verticalAlign=middle;whiteSpace=wrap;rounded=0;" parent="1" vertex="1">
          <mxGeometry x="175" y="810" width="75" height="30" as="geometry" />
        </mxCell>
        <mxCell id="6v44J63JRGMGie98hEK5-66" style="edgeStyle=orthogonalEdgeStyle;rounded=0;orthogonalLoop=1;jettySize=auto;html=1;endArrow=circle;endFill=0;endSize=4;" parent="1" source="6v44J63JRGMGie98hEK5-64" edge="1">
          <mxGeometry relative="1" as="geometry">
            <mxPoint x="270" y="930" as="targetPoint" />
          </mxGeometry>
        </mxCell>
        <mxCell id="6v44J63JRGMGie98hEK5-64" value="frm_err" style="text;html=1;align=center;verticalAlign=middle;whiteSpace=wrap;rounded=0;" parent="1" vertex="1">
          <mxGeometry x="195" y="900" width="55" height="30" as="geometry" />
        </mxCell>
        <mxCell id="SsOrcZFB5O0d8OT33Z8v-7" style="edgeStyle=orthogonalEdgeStyle;rounded=0;orthogonalLoop=1;jettySize=auto;html=1;exitX=1;exitY=0.5;exitDx=0;exitDy=0;endArrow=none;endFill=0;" edge="1" parent="1" source="SsOrcZFB5O0d8OT33Z8v-2">
          <mxGeometry relative="1" as="geometry">
            <mxPoint x="700" y="914.8571428571429" as="targetPoint" />
          </mxGeometry>
        </mxCell>
        <mxCell id="SsOrcZFB5O0d8OT33Z8v-2" value="z_cordic_in" style="text;html=1;align=center;verticalAlign=middle;whiteSpace=wrap;rounded=0;" vertex="1" parent="1">
          <mxGeometry x="480" y="900" width="80" height="30" as="geometry" />
        </mxCell>
        <mxCell id="SsOrcZFB5O0d8OT33Z8v-6" style="edgeStyle=orthogonalEdgeStyle;rounded=0;orthogonalLoop=1;jettySize=auto;html=1;exitX=1;exitY=0.5;exitDx=0;exitDy=0;endArrow=none;endFill=0;" edge="1" parent="1" source="SsOrcZFB5O0d8OT33Z8v-3">
          <mxGeometry relative="1" as="geometry">
            <mxPoint x="700" y="885.1428571428571" as="targetPoint" />
          </mxGeometry>
        </mxCell>
        <mxCell id="SsOrcZFB5O0d8OT33Z8v-3" value="y_cordic_in" style="text;html=1;align=center;verticalAlign=middle;whiteSpace=wrap;rounded=0;" vertex="1" parent="1">
          <mxGeometry x="480" y="870" width="80" height="30" as="geometry" />
        </mxCell>
        <mxCell id="SsOrcZFB5O0d8OT33Z8v-5" style="edgeStyle=orthogonalEdgeStyle;rounded=0;orthogonalLoop=1;jettySize=auto;html=1;exitX=1;exitY=0.5;exitDx=0;exitDy=0;endArrow=none;endFill=0;" edge="1" parent="1" source="SsOrcZFB5O0d8OT33Z8v-4">
          <mxGeometry relative="1" as="geometry">
            <mxPoint x="700" y="854.8571428571429" as="targetPoint" />
          </mxGeometry>
        </mxCell>
        <mxCell id="SsOrcZFB5O0d8OT33Z8v-4" value="x_cordic_in" style="text;html=1;align=center;verticalAlign=middle;whiteSpace=wrap;rounded=0;" vertex="1" parent="1">
          <mxGeometry x="485" y="840" width="75" height="30" as="geometry" />
        </mxCell>
        <mxCell id="SsOrcZFB5O0d8OT33Z8v-9" value="z_cordic_in" style="text;html=1;align=center;verticalAlign=middle;whiteSpace=wrap;rounded=0;" vertex="1" parent="1">
          <mxGeometry x="650" y="890" width="80" height="30" as="geometry" />
        </mxCell>
        <mxCell id="SsOrcZFB5O0d8OT33Z8v-10" value="y_cordic_in" style="text;html=1;align=center;verticalAlign=middle;whiteSpace=wrap;rounded=0;" vertex="1" parent="1">
          <mxGeometry x="650" y="860" width="80" height="30" as="geometry" />
        </mxCell>
        <mxCell id="SsOrcZFB5O0d8OT33Z8v-11" value="x_cordic_in" style="text;html=1;align=center;verticalAlign=middle;whiteSpace=wrap;rounded=0;" vertex="1" parent="1">
          <mxGeometry x="655" y="830" width="75" height="30" as="geometry" />
        </mxCell>
      </root>
    </mxGraphModel>
  </diagram>
</mxfile>
